<?xml version="1.0" encoding="UTF-8" standalone="no"?>
<!-- Created with Inkscape (http://www.inkscape.org/) -->

<svg
   xmlns:dc="http://purl.org/dc/elements/1.1/"
   xmlns:cc="http://creativecommons.org/ns#"
   xmlns:rdf="http://www.w3.org/1999/02/22-rdf-syntax-ns#"
   xmlns:svg="http://www.w3.org/2000/svg"
   xmlns="http://www.w3.org/2000/svg"
   xmlns:sodipodi="http://sodipodi.sourceforge.net/DTD/sodipodi-0.dtd"
   xmlns:inkscape="http://www.inkscape.org/namespaces/inkscape"
   width="4.2333307mm"
   height="4.2333331mm"
   viewBox="0 0 4.2333307 4.2333331"
   version="1.1"
   id="svg821"
   inkscape:version="0.92.4 (5da689c313, 2019-01-14)"
   sodipodi:docname="logo-extension.svg">
  <defs
     id="defs815" />
  <sodipodi:namedview
     id="base"
     pagecolor="#ffffff"
     bordercolor="#666666"
     borderopacity="1.0"
     inkscape:pageopacity="0.0"
     inkscape:pageshadow="2"
     inkscape:zoom="34.685561"
     inkscape:cx="11.971402"
     inkscape:cy="9.413598"
     inkscape:document-units="mm"
     inkscape:current-layer="layer1"
     showgrid="false"
     inkscape:window-width="1890"
     inkscape:window-height="1051"
     inkscape:window-x="30"
     inkscape:window-y="0"
     inkscape:window-maximized="1" />
  <metadata
     id="metadata818">
    <rdf:RDF>
      <cc:Work
         rdf:about="">
        <dc:format>image/svg+xml</dc:format>
        <dc:type
           rdf:resource="http://purl.org/dc/dcmitype/StillImage" />
        <dc:title></dc:title>
      </cc:Work>
    </rdf:RDF>
  </metadata>
  <g
     inkscape:label="Layer 1"
     inkscape:groupmode="layer"
     id="layer1"
     transform="translate(-9.1384284,-28.670429)">
    <rect
       style="opacity:1;fill:#53c1b6;fill-opacity:1;stroke:none;stroke-width:1;stroke-miterlimit:4;stroke-dasharray:none;stroke-opacity:1"
       id="rect1984"
       width="0.297135"
       height="4.2333331"
       x="11.10658"
       y="28.670429" />
    <path
       style="fill:#53c1b6;fill-opacity:1;stroke:none;stroke-width:0.26458332px;stroke-linecap:butt;stroke-linejoin:miter;stroke-opacity:1"
       d="m 9.933242,31.379762 0.148356,0.258374 2.495455,-1.443707 -0.148497,-0.258939 z"
       id="path1988"
       inkscape:connector-curvature="0" />
    <path
       style="fill:#53c1b6;fill-opacity:1;stroke:none;stroke-width:0.26458332px;stroke-linecap:butt;stroke-linejoin:miter;stroke-opacity:1"
       d="m 10.51794,30.533095 0.148498,-0.258939 1.325917,0.767363 -0.148497,0.258938 z"
       id="path1990"
       inkscape:connector-curvature="0" />
    <path
       inkscape:connector-curvature="0"
       class="cls-2"
       d="m 13.371759,30.787095 a 2.1166816,2.1220289 0 0 0 -1.968044,-2.116666 v 0.298591 c 0.934054,0.07606 1.670909,0.86233 1.670909,1.818075 0,0.955746 -0.736855,1.742017 -1.670909,1.818076 v 0.298591 a 2.1166816,2.1220289 0 0 0 1.968044,-2.116667 z"
       id="path15039"
       style="display:inline;fill:#111111;fill-opacity:1;stroke-width:0.01409332" />
    <path
       inkscape:connector-curvature="0"
       class="cls-2"
       d="m 9.4356713,30.787095 c 0,-0.955745 0.7368547,-1.742017 1.6709087,-1.818075 v -0.298591 a 2.1165408,2.1218878 0 0 0 0,4.233333 v -0.298591 c -0.934054,-0.07606 -1.6709087,-0.86233 -1.6709087,-1.818076 z"
       id="path15041"
       style="display:inline;fill:#111111;fill-opacity:1;stroke-width:0.01409332" />
    <path
       inkscape:connector-curvature="0"
       class="cls-2"
       d="m 10.531031,29.529795 a 1.4483744,1.4520334 0 0 0 -0.597789,1.849967 l 0.259272,-0.150142 a 1.1508172,1.1537245 0 0 1 1.97663,-1.144129 l 0.259412,-0.150001 a 1.4483744,1.4520334 0 0 0 -1.897525,-0.405695 z"
       id="path15043"
       style="display:inline;fill:#111111;fill-opacity:1;stroke-width:0.01409332" />
    <path
       inkscape:connector-curvature="0"
       class="cls-2"
       d="m 11.830767,31.786585 a 1.1529285,1.1558411 0 0 1 -1.489756,-0.29845 l -0.259413,0.150001 a 1.4483744,1.4520334 0 0 0 2.495455,-1.443707 l -0.259271,0.149577 a 1.1527878,1.1557 0 0 1 -0.487015,1.442579 z"
       id="path15045"
       style="display:inline;fill:#111111;fill-opacity:1;stroke-width:0.01409332" />
    <path
       inkscape:connector-curvature="0"
       class="cls-2"
       d="m 11.64497,30.109762 a 0.77992634,0.78189664 0 0 0 -0.978532,0.164394 l 0.265183,0.153529 a 0.4826507,0.48387 0 0 1 0.79555,0.460446 l 0.265184,0.153388 A 0.77992634,0.78189664 0 0 0 11.64497,30.109762 Z"
       id="path15047"
       style="display:inline;fill:#111111;fill-opacity:1;stroke-width:0.01409332" />
    <path
       inkscape:connector-curvature="0"
       class="cls-2"
       d="M 11.013822,31.206195 A 0.48349524,0.48471667 0 0 1 10.783124,30.685777 L 10.51794,30.533095 a 0.77978563,0.78175557 0 0 0 1.325918,0.767362 l -0.265325,-0.153528 a 0.48321372,0.48443444 0 0 1 -0.564711,0.05927 z"
       id="path15049"
       style="display:inline;fill:#111111;fill-opacity:1;stroke-width:0.01409332" />
  </g>
</svg>
